# xmcd
#
# Track frame offsets:
# 150
# 15275
# 27415
# 38282
# 50245
# 61915
# 73740
# 83572
# 96425
# 108830
# 123855
# 134745
# 144060
# 156432
#
# Disc length: 2211 seconds
#
# Revision: 0
# Processed by: cddbd v1.4PL0 Copyright (c) Steve Scherf et al.
# Submitted via: MacMP3 Pro 5.0 (http://mp3.act2.co.jp/)
#
DISCID=b408a10e
DTITLE=herschel sizemore - my style
DYEAR=1900
DGENRE=
TTITLE0=sandy ridge
TTITLE1=joyces waltz
TTITLE2=amandolina
TTITLE3=monroe country
TTITLE4=me n bauc
TTITLE5=lees reel
TTITLE6=cotton eyed joe
TTITLE7=fancy gap
TTITLE8=charmaine
TTITLE9=loars waltz
TTITLE10=2 oclock in the morning
TTITLE11=monroes hornpipe
TTITLE12=billy in the low graund
TTITLE13=the old brown country barn
EXTD=
EXTT0=
EXTT1=
EXTT2=
EXTT3=
EXTT4=
EXTT5=
EXTT6=
EXTT7=
EXTT8=
EXTT9=
EXTT10=
EXTT11=
EXTT12=
EXTT13=
PLAYORDER=
